HIERARCHY
ROOT Hips
{
    OFFSET 0.000000 0.000000 0.000000
    CHANNELS 6 Xposition Yposition Zposition Zrotation Yrotation Xrotation
    JOINT Chest
    {
        OFFSET 0.000000 1.634758 -0.000000
        CHANNELS 3 Zrotation Yrotation Xrotation
        JOINT Chest2
        {
            OFFSET 0.000000 2.197341 0.000000
            CHANNELS 3 Zrotation Yrotation Xrotation
            JOINT Neck
            {
                OFFSET 0.000000 0.961544 0.000000
                CHANNELS 3 Zrotation Yrotation Xrotation
                JOINT Head
                {
                    OFFSET 0.000000 0.632542 -0.032565
                    CHANNELS 3 Zrotation Yrotation Xrotation
                    End Site
                    {
                        OFFSET -0.000001 0.439502 2.922845
                    }
                }
            }
            JOINT LeftCollar
            {
                OFFSET 0.167536 0.778237 -0.168280
                CHANNELS 3 Zrotation Yrotation Xrotation
                JOINT LeftShoulder
                {
                    OFFSET 0.831514 -0.002900 0.006458
                    CHANNELS 3 Zrotation Yrotation Xrotation
                    JOINT LeftElbow
                    {
                        OFFSET 2.272872 -0.026639 0.059314
                        CHANNELS 3 Zrotation Yrotation Xrotation
                        JOINT LeftWrist
                        {
                            OFFSET 2.081982 -0.024402 0.054333
                            CHANNELS 3 Zrotation Yrotation Xrotation
                            JOINT LeftHandThumb1
                            {
                                OFFSET 0.218903 -0.128645 0.283837
                                CHANNELS 3 Zrotation Yrotation Xrotation
                                JOINT LeftHandThumb2
                                {
                                    OFFSET 0.137157 -0.025101 0.077902
                                    CHANNELS 3 Zrotation Yrotation Xrotation
                                    JOINT LeftHandThumb3
                                    {
                                        OFFSET 0.165861 -0.067014 0.039226
                                        CHANNELS 3 Zrotation Yrotation Xrotation
                                        End Site
                                        {
                                            OFFSET 0.241157 -0.045065 0.107930
                                        }
                                    }
                                }
                            }
                            JOINT LeftHandFore1
                            {
                                OFFSET 0.767340 -0.016076 0.196678
                                CHANNELS 3 Zrotation Yrotation Xrotation
                                JOINT LeftHandFore2
                                {
                                    OFFSET 0.215173 -0.024035 0.010864
                                    CHANNELS 3 Zrotation Yrotation Xrotation
                                    JOINT LeftHandFore3
                                    {
                                        OFFSET 0.127998 -0.018363 0.006493
                                        CHANNELS 3 Zrotation Yrotation Xrotation
                                        End Site
                                        {
                                            OFFSET 0.191872 -0.022849 0.005461
                                        }
                                    }
                                }
                            }
                            JOINT LeftHandMiddle1
                            {
                                OFFSET 0.709887 -0.008320 0.018526
                                CHANNELS 3 Zrotation Yrotation Xrotation
                                JOINT LeftHandMiddle2
                                {
                                    OFFSET 0.243305 -0.028680 0.006624
                                    CHANNELS 3 Zrotation Yrotation Xrotation
                                    JOINT LeftHandMiddle3
                                    {
                                        OFFSET 0.145223 -0.016669 0.003951
                                        CHANNELS 3 Zrotation Yrotation Xrotation
                                        End Site
                                        {
                                            OFFSET 0.233621 -0.031666 0.006995
                                        }
                                    }
                                }
                            }
                            JOINT LeftHandRing1
                            {
                                OFFSET 0.743817 -0.005823 -0.153668
                                CHANNELS 3 Zrotation Yrotation Xrotation
                                JOINT LeftHandRing2
                                {
                                    OFFSET 0.349394 -0.050632 -0.009675
                                    CHANNELS 3 Zrotation Yrotation Xrotation
                                    JOINT LeftHandRing3
                                    {
                                        OFFSET 0.134332 -0.023631 0.001421
                                        CHANNELS 3 Zrotation Yrotation Xrotation
                                        End Site
                                        {
                                            OFFSET 0.116893 -0.027460 0.001278
                                        }
                                    }
                                }
                            }
                            JOINT LeftHandLittle1
                            {
                                OFFSET 0.689408 -0.053302 -0.308304
                                CHANNELS 3 Zrotation Yrotation Xrotation
                                JOINT LeftHandLittle2
                                {
                                    OFFSET 0.193251 -0.018757 -0.018874
                                    CHANNELS 3 Zrotation Yrotation Xrotation
                                    JOINT LeftHandLittle3
                                    {
                                        OFFSET 0.116994 -0.025997 -0.011519
                                        CHANNELS 3 Zrotation Yrotation Xrotation
                                        End Site
                                        {
                                            OFFSET 0.189726 -0.012367 -0.011818
                                        }
                                    }
                                }
                            }
                        }
                    }
                }
            }
            JOINT RightCollar
            {
                OFFSET -0.167536 0.778237 -0.168280
                CHANNELS 3 Zrotation Yrotation Xrotation
                JOINT RightShoulder
                {
                    OFFSET -0.831514 -0.002900 0.006457
                    CHANNELS 3 Zrotation Yrotation Xrotation
                    JOINT RightElbow
                    {
                        OFFSET -2.272872 -0.026639 0.059313
                        CHANNELS 3 Zrotation Yrotation Xrotation
                        JOINT RightWrist
                        {
                            OFFSET -2.081982 -0.024402 0.054331
                            CHANNELS 3 Zrotation Yrotation Xrotation
                            JOINT RightHandThumb1
                            {
                                OFFSET -0.218911 -0.128571 0.283837
                                CHANNELS 3 Zrotation Yrotation Xrotation
                                JOINT RightHandThumb2
                                {
                                    OFFSET -0.137157 -0.025101 0.077902
                                    CHANNELS 3 Zrotation Yrotation Xrotation
                                    JOINT RightHandThumb3
                                    {
                                        OFFSET -0.165861 -0.067014 0.039226
                                        CHANNELS 3 Zrotation Yrotation Xrotation
                                        End Site
                                        {
                                            OFFSET -0.229436 -0.065997 0.121819
                                        }
                                    }
                                }
                            }
                            JOINT RightHandFore1
                            {
                                OFFSET -0.767344 -0.015991 0.196679
                                CHANNELS 3 Zrotation Yrotation Xrotation
                                JOINT RightHandFore2
                                {
                                    OFFSET -0.215182 -0.023988 0.010864
                                    CHANNELS 3 Zrotation Yrotation Xrotation
                                    JOINT RightHandFore3
                                    {
                                        OFFSET -0.127999 -0.018333 0.006493
                                        CHANNELS 3 Zrotation Yrotation Xrotation
                                        End Site
                                        {
                                            OFFSET -0.191454 -0.022769 0.013914
                                        }
                                    }
                                }
                            }
                            JOINT RightHandMiddle1
                            {
                                OFFSET -0.709887 -0.008302 0.018525
                                CHANNELS 3 Zrotation Yrotation Xrotation
                                JOINT RightHandMiddle2
                                {
                                    OFFSET -0.243299 -0.028704 0.006624
                                    CHANNELS 3 Zrotation Yrotation Xrotation
                                    JOINT RightHandMiddle3
                                    {
                                        OFFSET -0.145226 -0.016685 0.003951
                                        CHANNELS 3 Zrotation Yrotation Xrotation
                                        End Site
                                        {
                                            OFFSET -0.233653 -0.031672 0.005780
                                        }
                                    }
                                }
                            }
                            JOINT RightHandRing1
                            {
                                OFFSET -0.743819 -0.005785 -0.153669
                                CHANNELS 3 Zrotation Yrotation Xrotation
                                JOINT RightHandRing2
                                {
                                    OFFSET -0.349398 -0.050607 -0.009675
                                    CHANNELS 3 Zrotation Yrotation Xrotation
                                    JOINT RightHandRing3
                                    {
                                        OFFSET -0.134041 -0.023657 -0.008853
                                        CHANNELS 3 Zrotation Yrotation Xrotation
                                        End Site
                                        {
                                            OFFSET -0.116640 -0.027483 -0.007747
                                        }
                                    }
                                }
                            }
                            JOINT RightHandLittle1
                            {
                                OFFSET -0.689403 -0.053298 -0.308303
                                CHANNELS 3 Zrotation Yrotation Xrotation
                                JOINT RightHandLittle2
                                {
                                    OFFSET -0.193254 -0.018752 -0.018875
                                    CHANNELS 3 Zrotation Yrotation Xrotation
                                    JOINT RightHandLittle3
                                    {
                                        OFFSET -0.116992 -0.025993 -0.011520
                                        CHANNELS 3 Zrotation Yrotation Xrotation
                                        End Site
                                        {
                                            OFFSET -0.188440 -0.012318 -0.025042
                                        }
                                    }
                                }
                            }
                        }
                    }
                }
            }
        }
    }
    JOINT LeftHip
    {
        OFFSET 0.685143 0.673822 -0.044491
        CHANNELS 3 Zrotation Yrotation Xrotation
        JOINT LeftKnee
        {
            OFFSET 0.085364 -3.750208 0.017676
            CHANNELS 3 Zrotation Yrotation Xrotation
            JOINT LeftAnkle
            {
                OFFSET 0.094583 -4.155206 0.019585
                CHANNELS 3 Zrotation Yrotation Xrotation
                JOINT LeftToe
                {
                    OFFSET -0.000000 -0.395925 0.621478
                    CHANNELS 3 Zrotation Yrotation Xrotation
                    End Site
                    {
                        OFFSET -0.000000 -0.077878 0.321152
                    }
                }
            }
        }
    }
    JOINT RightHip
    {
        OFFSET -0.685143 0.673822 -0.044492
        CHANNELS 3 Zrotation Yrotation Xrotation
        JOINT RightKnee
        {
            OFFSET -0.085364 -3.750208 0.017677
            CHANNELS 3 Zrotation Yrotation Xrotation
            JOINT RightAnkle
            {
                OFFSET -0.094583 -4.155206 0.019585
                CHANNELS 3 Zrotation Yrotation Xrotation
                JOINT RightToe
                {
                    OFFSET -0.000000 -0.395925 0.621478
                    CHANNELS 3 Zrotation Yrotation Xrotation
                    End Site
                    {
                        OFFSET -0.000000 -0.077878 0.321152
                    }
                }
            }
        }
    }
}
MOTION
Frames: 4
Frame Time: 0.033333
-1.703750 8.454529 -7.769839 164.926163 -0.000013 179.999985 -16.519333 -0.349073 4.521740 -2.018565 0.192949 -3.504095 0.006181 -0.430509 -0.142190 0.011067 -0.214936 1.964439 -7.233920 -0.167803 0.040292 -25.552818 9.433236 0.878026 0.039928 -19.585852 -0.238675 45.513004 -4.669375 0.254310 -0.000002 -0.000013 -0.000016 2.228550 -12.445933 -3.097734 1.923128 -16.724571 -7.576454 2.282474 -2.164937 -0.000107 5.845557 0.189742 -0.069024 3.707942 0.138551 -0.124892 11.745609 5.438562 2.086923 4.567834 0.141634 -0.036332 -9.165265 -0.306440 0.192381 1.717436 0.202370 -0.041027 0.469186 0.031104 0.078472 -19.005743 -0.410745 0.585088 -6.905274 16.838455 6.369662 -5.624394 0.186868 0.126829 -25.813154 -0.148702 -0.442566 8.831797 0.216833 -0.050384 31.366039 2.118434 0.512320 -0.000004 0.000000 0.000000 -46.192299 4.857183 -1.588472 -0.000001 0.000013 -0.000007 -10.046997 4.317222 -7.355711 -15.894110 6.546829 -7.399796 -2.282464 2.164979 -0.000556 -5.827215 0.071919 -0.504896 -3.704432 0.070484 -0.240979 -11.745491 -5.438960 2.086267 -4.565249 0.073716 -0.202862 9.163530 -0.228543 0.300107 -1.717438 -0.202369 -0.041026 -0.472788 0.031298 -0.052408 18.950628 -0.241840 -1.616802 6.905227 -16.838455 6.369680 5.493749 0.167932 -1.208001 25.408201 0.623061 -4.438603 -21.098404 7.248207 44.339451 0.000001 -0.000000 0.000000 3.508376 0.552365 13.055522 0.000001 0.000003 0.000005 -20.644167 4.755355 34.686527 -0.094158 -0.486574 21.906410 -4.805019 -0.455150 0.004078 -0.000000 -0.000003 -0.000002
-1.794355 8.467708 -7.756791 163.232574 -0.000013 179.999985 -17.684385 -0.188130 6.869437 -1.446252 0.120454 -3.713350 0.008168 -0.330747 -1.051360 0.011293 -0.219352 0.269844 -8.422949 -2.113448 0.024728 -30.346682 1.860206 1.158366 0.033994 -18.158798 -0.220030 66.790215 0.458942 -1.707807 0.000007 -0.000015 -0.000013 3.448776 -17.236212 -4.238798 3.238448 -23.176737 -10.147634 0.745543 -3.060789 -0.019333 10.063299 0.350280 -0.119075 5.126832 0.194702 -0.172045 18.425385 7.615017 2.853834 9.821107 0.330024 -0.103423 -1.497352 -0.056259 0.041282 11.773633 0.470743 -0.775403 9.417888 0.240133 0.254214 -2.387692 -0.023773 0.120420 6.930407 23.053772 6.474564 3.181380 0.181151 -0.043204 -7.625991 0.120245 -0.142578 9.188141 2.617602 -0.044062 34.093212 -1.294258 1.295353 -0.060341 23.720516 -0.294690 -65.574806 -2.131409 -3.611895 -0.000003 -0.000003 -0.000009 -13.906669 5.581742 -10.628493 -22.020195 8.009631 -11.109063 -0.745510 3.060796 -0.019962 -10.033961 0.111483 -0.860069 -5.122326 0.094342 -0.332561 -18.425219 -7.615592 2.852930 -9.818471 0.160724 -0.403198 1.497963 -0.038158 0.038251 -11.773623 -0.470776 -0.775375 -9.415184 0.284397 0.264659 2.377432 -0.021420 -0.252305 -6.930389 -23.053802 6.474546 -3.108969 0.237635 0.652571 7.509316 0.120668 -1.328621 -23.051439 7.706190 44.023949 0.000000 -0.000001 -0.000003 3.119810 0.668592 13.616723 -0.000001 -0.000003 0.000002 -22.375776 5.552542 34.338680 -0.099481 -0.499606 22.524776 -4.709110 -0.996883 -0.108309 -0.000001 0.000000 0.000003
-1.879206 8.480740 -7.744214 161.707230 -0.000013 179.999985 -18.692398 -0.082698 8.722510 -0.861102 0.063335 -3.879141 0.005165 -0.189436 -1.397388 0.006586 -0.127934 -0.387322 -9.394336 -4.528629 0.004510 -35.278564 -8.483561 2.187465 0.020452 -14.269349 -0.170649 80.985588 3.721925 -2.496056 -0.000010 -0.000012 -0.000012 4.025607 -19.245440 -4.723070 3.890148 -25.880535 -11.197461 0.101094 -3.436145 -0.027428 12.595723 0.448121 -0.143705 5.721817 0.218758 -0.191694 21.225674 8.533386 3.177734 12.023875 0.412635 -0.130073 1.717754 0.056824 -0.020555 15.989895 0.596787 -1.080887 13.171152 0.316400 0.326341 4.580491 0.152868 -0.067119 12.741117 25.691387 6.462296 6.872907 0.140342 -0.118150 -0.000001 0.000003 -0.000001 9.365149 5.486227 -0.039449 36.644318 8.135757 2.752220 -0.064785 24.502254 -0.305663 -79.397804 -8.079153 -2.866851 -0.000001 0.000006 -0.000005 -15.523864 6.041542 -12.068761 -24.575624 8.431612 -12.776317 -0.101073 3.436141 -0.028128 -12.559929 0.122511 -1.074089 -5.716944 0.103835 -0.370847 -21.225512 -8.534020 3.176732 -12.021597 0.193602 -0.485727 -1.717091 0.033517 -0.070028 -15.989905 -0.596819 -1.080843 -13.164635 0.401915 0.396068 -4.569050 0.163675 0.320105 -12.741082 -25.691418 6.462341 -6.714823 0.303523 1.429368 0.000003 0.000002 -0.000003 -24.778294 8.193032 43.724571 -0.000000 0.000000 0.000002 2.709329 0.742134 14.184816 -0.000001 -0.000004 -0.000002 -23.920475 6.329614 34.060341 -0.103711 -0.509686 23.005095 -4.591717 -1.541747 -0.135984 -0.000002 -0.000000 0.000000
-1.956342 8.493082 -7.732204 160.367828 -0.000013 179.999985 -19.559471 -0.022243 9.971931 -0.303627 0.020528 -3.954686 -0.000163 -0.036604 1.033409 -0.000466 0.009076 4.161197 -9.506643 -7.118869 -0.017921 -38.604916 -14.819175 4.305779 0.049076 -21.561184 -0.265037 91.845856 11.312928 -0.323319 0.000006 -0.000002 -0.000014 3.913407 -18.865356 -4.630968 3.762121 -25.369232 -10.999689 2.427858 -3.378866 -0.130018 14.056962 0.499385 -0.152884 5.721822 0.218756 -0.191698 19.638613 8.542380 2.853144 10.993283 0.375072 -0.124497 0.810751 0.026006 -0.010611 11.257998 0.466719 -0.734493 10.861485 0.256750 0.277830 1.572949 0.057179 -0.007923 7.461551 25.493032 4.830324 2.350731 0.215379 -0.025844 -2.722941 -0.134628 -0.055422 8.791784 8.396778 -0.036055 36.947388 23.454266 4.758880 -0.018813 13.718058 -0.163797 -92.348213 -15.616838 0.287704 0.000000 0.000002 -0.000017 -15.218042 5.957830 -11.793327 -24.093229 8.360641 -12.456392 -2.427829 3.378878 -0.130701 -14.016936 0.118938 -1.200766 -5.716943 0.103835 -0.370840 -19.638439 -8.542978 2.852139 -10.991199 0.179826 -0.440472 -0.810461 0.015341 -0.032232 -11.258006 -0.466739 -0.734459 -10.857295 0.315295 0.319637 -1.570003 0.058613 0.094902 -7.461486 -25.493021 4.830462 -2.297157 0.253934 0.476438 2.682222 -0.156507 -0.469671 -26.269855 8.682174 43.448467 -0.000001 -0.000000 0.000000 2.301328 0.782584 14.738011 0.000000 -0.000003 -0.000014 -25.269695 7.056942 33.827881 -0.107171 -0.517764 23.391275 -4.463784 -2.060785 -0.106150 0.000002 0.000001 0.000003
